# xmcd
#
# Track frame offsets:
#	150
#	12652
#	22805
#	34617
#	45102
#	56997
#	70282
#	80217
#	92910
#	106302
#	122142
#	133575
#	147497
#	159657
#	173220
#	189195
#	199167
#
# Disc length: 2773 seconds
#
# Revision: 1
# Processed by: cddbd v1.5.2PL0 Copyright (c) Steve Scherf et al.
# Submitted via: audiograbber 1.83.01
#
DISCID=ed0ad311
DTITLE=Charles Lee Guy III - The Prisoner's Dream
DYEAR=1991
DGENRE=Country
TTITLE0=There Goes a Lonely Man
TTITLE1=This Ole Dog
TTITLE2=You Just Don't Know Your Man
TTITLE3=Rich Man's Gold
TTITLE4=Unhappy People
TTITLE5=The Prisoner's Dream
TTITLE6=Shackles and Chains
TTITLE7=They're All Goin' Home but One
TTITLE8=The Wall
TTITLE9=Twenty One Years
TTITLE10=Folsom Prison Blues
TTITLE11=The Prisoner Song
TTITLE12=Cigareets, Whuskey, and Wild, Wild WomenTrack 13
TTITLE13=Send a Picture of Mother
TTITLE14=Cold Gray Bars
TTITLE15=Wishin' She Was Here (Instead of Me)
TTITLE16=Doin' My Time
EXTD=Bear CD #55581.   Tracks 6 through 17 recorded in December 1962 at Vacavil
EXTD=le Prison in California, where Guy was a prisoner, with Joe Maphis (not a 
EXTD=prisoner) playing guitar.
EXTT0=
EXTT1=
EXTT2=
EXTT3=
EXTT4=
EXTT5=
EXTT6=
EXTT7=
EXTT8=
EXTT9=
EXTT10=
EXTT11=
EXTT12=
EXTT13=
EXTT14=
EXTT15=
EXTT16=
PLAYORDER=
